<?xml version="1.0" encoding="UTF-8"?>
<svg version="1.1" xmlns="http://www.w3.org/2000/svg" width="350" height="351">
<path d="M0 0 C3.88478998 0.24279937 5.67635782 2.39397682 8.25 5.125 C11.05601802 8.0317234 13.85895454 10.82104858 16.9375 13.4375 C20.1103592 16.15619248 23.06338382 19.02751675 26 22 C28.89591958 24.93118191 31.80242571 27.76403174 34.9375 30.4375 C38.80617798 33.74346118 42.36064305 37.33144678 45.93115234 40.95068359 C49.15350409 44.19984173 52.49331816 47.22436334 55.97265625 50.19140625 C59.31879936 53.17650116 62.41593952 56.40882768 65.56640625 59.59765625 C67.63242365 61.63714373 69.73005549 63.555078 71.9375 65.4375 C75.80617798 68.74346118 79.36064305 72.33144678 82.93115234 75.95068359 C86.15350409 79.19984173 89.49331816 82.22436334 92.97265625 85.19140625 C96.31879936 88.17650116 99.41593952 91.40882768 102.56640625 94.59765625 C104.63242365 96.63714373 106.73005549 98.555078 108.9375 100.4375 C112.80617798 103.74346118 116.36064305 107.33144678 119.93115234 110.95068359 C123.14832618 114.19462074 126.48114264 117.21590085 129.95703125 120.17578125 C133.36098929 123.21526194 136.51819042 126.49954559 139.703125 129.765625 C141.71010478 131.71799308 143.7172021 133.3873813 146 135 C145.15915056 139.71722223 142.22204796 141.86128677 138.6875 144.8125 C138.10548828 145.32748047 137.52347656 145.84246094 136.92382812 146.37304688 C135.19921875 147.83203125 135.19921875 147.83203125 132 150 C128.56906294 149.54512428 127.07373073 148.39049492 124.75 145.875 C122.32354777 143.3352103 119.86330866 140.96328878 117.1875 138.6875 C113.97666245 135.92381971 110.97732835 133.01380404 108 130 C105.08373397 127.04816975 102.15394165 124.19611141 99 121.5 C94.92376781 118.01547893 91.20449127 114.21918019 87.4375 110.40625 C85.34999365 108.34550655 83.22830777 106.40484374 81 104.5 C77.84605835 101.80388859 74.91626603 98.95183025 72 96 C69.10408042 93.06881809 66.19757429 90.23596826 63.0625 87.5625 C59.19382202 84.25653882 55.63935695 80.66855322 52.06884766 77.04931641 C48.84649591 73.80015827 45.50668184 70.77563666 42.02734375 67.80859375 C38.68256946 64.82471996 35.58664843 61.59380268 32.4375 58.40625 C30.34999365 56.34550655 28.22830777 54.40484374 26 52.5 C22.84605835 49.80388859 19.91626603 46.95183025 17 44 C11.98838754 38.93433317 6.94330745 33.96220497 1 30 C0.443125 30.56847656 -0.11375 31.13695313 -0.6875 31.72265625 C-4.33976127 35.41810304 -7.98659623 39.06024483 -11.9375 42.4375 C-15.1103592 45.15619248 -18.06338382 48.02751675 -21 51 C-23.89591958 53.93118191 -26.80242571 56.76403174 -29.9375 59.4375 C-33.28925073 62.30172335 -36.40556756 65.36333716 -39.5 68.5 C-43.18994588 72.24030338 -46.97503698 75.7823935 -50.97265625 79.19140625 C-54.31743054 82.17528004 -57.41335157 85.40619732 -60.5625 88.59375 C-63.25283906 91.24959753 -66.06573525 93.70135432 -68.9375 96.15625 C-71.38924689 98.34796313 -73.68885573 100.66067104 -76 103 C-79.52106323 106.56400302 -83.13186008 109.90304168 -86.9375 113.15625 C-89.38924689 115.34796313 -91.68885573 117.66067104 -94 120 C-97.52106323 123.56400302 -101.13186008 126.90304168 -104.9375 130.15625 C-107.38924689 132.34796313 -109.68885573 134.66067104 -112 137 C-124.32225994 149.41704655 -124.32225994 149.41704655 -129 150 C-130.73925781 149.01196289 -130.73925781 149.01196289 -132.453125 147.47265625 C-133.071875 146.92802734 -133.690625 146.38339844 -134.328125 145.82226562 C-135.27945313 144.95118164 -135.27945313 144.95118164 -136.25 144.0625 C-136.8996875 143.48564453 -137.549375 142.90878906 -138.21875 142.31445312 C-139.82256219 140.88753199 -141.41262793 139.44518767 -143 138 C-142.24104439 134.44909057 -141.42032249 133.16355805 -138.5625 130.875 C-135.19343809 128.06644392 -132.07575726 125.12804988 -129 122 C-126.10408042 119.06881809 -123.19757429 116.23596826 -120.0625 113.5625 C-116.71074927 110.69827665 -113.59443244 107.63666284 -110.5 104.5 C-106.81005412 100.75969662 -103.02496302 97.2176065 -99.02734375 93.80859375 C-96.58571366 91.63041508 -94.29951968 89.32751992 -92 87 C-89.10408042 84.06881809 -86.19757429 81.23596826 -83.0625 78.5625 C-79.71074927 75.69827665 -76.59443244 72.63666284 -73.5 69.5 C-69.81005412 65.75969662 -66.02496302 62.2176065 -62.02734375 58.80859375 C-59.58571366 56.63041508 -57.29951968 54.32751992 -55 52 C-52.10408042 49.06881809 -49.19757429 46.23596826 -46.0625 43.5625 C-42.71074927 40.69827665 -39.59443244 37.63666284 -36.5 34.5 C-32.81005412 30.75969662 -29.02496302 27.2176065 -25.02734375 23.80859375 C-21.68941375 20.83082576 -18.59958705 17.60695525 -15.45703125 14.42578125 C-12.65820694 11.66255407 -9.74595046 9.08409485 -6.74609375 6.54296875 C-5.12300046 5.10869168 -3.698366 3.60684981 -2.25 2 C-1.13625 1.01 -1.13625 1.01 0 0 Z " fill="#008080" transform="translate(175,76)"/>
<path d="M0 0 C46.86 0 93.72 0 142 0 C142 30.36 142 60.72 142 92 C95.14 92 48.28 92 0 92 C0 61.64 0 31.28 0 0 Z M13 13 C13 34.78 13 56.56 13 79 C51.28 79 89.56 79 129 79 C129 57.22 129 35.44 129 13 C90.72 13 52.44 13 13 13 Z " fill="#008080" transform="translate(104,247)"/>
<path d="M0 0 C5.61 0 11.22 0 17 0 C17.2475 1.876875 17.495 3.75375 17.75 5.6875 C18.55197322 10.4823962 19.23049535 13.67396648 23 17 C27.28725492 19.52191466 31.13509209 19.65034359 36 19 C39.46450838 17.52437606 41.33478109 16.37478575 42.99609375 12.94140625 C44.5152214 8.63115411 45.24251305 4.54492171 46 0 C62.5 0 79 0 96 0 C96.99 4.29 97.98 8.58 99 13 C101.56619447 16.25468568 103.72085023 18.72194373 107.953125 19.23828125 C113.486723 19.41708799 116.72497829 18.86787679 121 15 C124.2457515 10.18733398 124.57164836 5.65424162 125 0 C130.61 0 136.22 0 142 0 C142 9.57 142 19.14 142 29 C95.14 29 48.28 29 0 29 C0 19.43 0 9.86 0 0 Z " fill="#008080" transform="translate(104,209)"/>
<path d="M0 0 C0.66 0 1.32 0 2 0 C3.98 5.94 5.96 11.88 8 18 C14.27 18.33 20.54 18.66 27 19 C24.86656096 23.26687808 23.06301178 24.83389766 19.375 27.75 C18.37210938 28.54921875 17.36921875 29.3484375 16.3359375 30.171875 C15.56507813 30.77515625 14.79421875 31.3784375 14 32 C14.12117188 32.60585938 14.24234375 33.21171875 14.3671875 33.8359375 C16.18359375 42.91796875 16.18359375 42.91796875 18 52 C13.84848662 50.55797524 10.70021555 48.4989562 7.1875 45.875 C6.21167969 45.15054688 5.23585937 44.42609375 4.23046875 43.6796875 C3.49441406 43.12539063 2.75835937 42.57109375 2 42 C-2.79631752 44.20120852 -6.98465169 47.34153331 -11.3203125 50.3203125 C-14 52 -14 52 -16 52 C-14.29533679 42.8238342 -14.29533679 42.8238342 -12.8125 38.6875 C-11.83535401 35.45540173 -11.88496137 34.18582466 -13 31 C-14.99268448 29.09308386 -16.87929892 27.46175247 -19.0625 25.8125 C-21.09023963 24.24969046 -23.04944261 22.6622397 -25 21 C-25 20.34 -25 19.68 -25 19 C-18.73 18.67 -12.46 18.34 -6 18 C-4.02 12.06 -2.04 6.12 0 0 Z " fill="#008080" transform="translate(175,12)"/>
<path d="M0 0 C17.80592334 0.52680247 33.66860223 6.03737847 46.72265625 18.5625 C58.2487609 30.89918834 66.09677113 46.72724446 66.1875 63.875 C66.0946875 65.421875 66.0946875 65.421875 66 67 C62.7 67 59.4 67 56 67 C55.84144531 65.98421875 55.68289063 64.9684375 55.51953125 63.921875 C52.86973346 47.89206505 47.43971472 33.19183341 34.359375 22.62109375 C23.59421299 15.22450065 12.64201095 12.30766866 0 10 C0 6.7 0 3.4 0 0 Z " fill="#008080" transform="translate(258,77)"/>
<path d="M0 0 C11.59066096 -1.07820102 23.13586258 4.43485273 31.9609375 11.58984375 C39.72549852 18.7949495 45.67710039 29.41680314 47 40 C47.07020702 42.67288161 47.04533766 45.32507807 47 48 C43.7 48 40.4 48 37 48 C36.67128906 46.42412109 36.67128906 46.42412109 36.3359375 44.81640625 C33.75452702 33.12274214 30.19361872 24.08554307 20 17 C13.83592744 13.06889949 7.07658646 11.55684902 0 10 C0 6.7 0 3.4 0 0 Z " fill="#008080" transform="translate(258,96)"/>
<path d="M0 0 C7.57540134 -0.64471501 12.85302162 2.02542533 19.1875 6 C23.94350987 10.30305655 27.45155145 17.25798123 28.375 23.55859375 C28.375 25.75 28.375 25.75 28 29 C24.7 29 21.4 29 18 29 C17.5875 27.453125 17.175 25.90625 16.75 24.3125 C14.95548968 18.50552806 14.95548968 18.50552806 11 14 C7.40274713 12.42490228 3.75058891 11.15750933 0 10 C0 6.7 0 3.4 0 0 Z " fill="#008080" transform="translate(258,115)"/>
<path d="M0 0 C2.139656 1.59358814 2.90554658 2.4819913 3.38818359 5.12890625 C3.39156738 5.93199219 3.39495117 6.73507813 3.3984375 7.5625 C3.40230469 8.44164062 3.40617188 9.32078125 3.41015625 10.2265625 C3.39855469 11.14179688 3.38695312 12.05703125 3.375 13 C3.38660156 13.91523438 3.39820313 14.83046875 3.41015625 15.7734375 C3.40628906 16.65257812 3.40242187 17.53171875 3.3984375 18.4375 C3.39505371 19.24058594 3.39166992 20.04367188 3.38818359 20.87109375 C2.90554658 23.5180087 2.139656 24.40641186 0 26 C-5.13772 26.642215 -5.13772 26.642215 -7.66259766 24.76171875 C-9.36559808 22.51840896 -9.38665126 21.23476832 -9.3984375 18.4375 C-9.40230469 17.55835938 -9.40617188 16.67921875 -9.41015625 15.7734375 C-9.39855469 14.85820312 -9.38695312 13.94296875 -9.375 13 C-9.39240234 11.62714844 -9.39240234 11.62714844 -9.41015625 10.2265625 C-9.40628906 9.34742188 -9.40242187 8.46828125 -9.3984375 7.5625 C-9.39336182 6.35787109 -9.39336182 6.35787109 -9.38818359 5.12890625 C-8.42281218 -0.16545773 -4.79282513 -0.59910314 0 0 Z " fill="#008080" transform="translate(218,196)"/>
<path d="M0 0 C2.139656 1.59358814 2.90554658 2.4819913 3.38818359 5.12890625 C3.39156738 5.93199219 3.39495117 6.73507813 3.3984375 7.5625 C3.40230469 8.44164062 3.40617188 9.32078125 3.41015625 10.2265625 C3.39855469 11.14179688 3.38695312 12.05703125 3.375 13 C3.38660156 13.91523438 3.39820313 14.83046875 3.41015625 15.7734375 C3.40628906 16.65257812 3.40242187 17.53171875 3.3984375 18.4375 C3.39505371 19.24058594 3.39166992 20.04367188 3.38818359 20.87109375 C2.90554658 23.5180087 2.139656 24.40641186 0 26 C-5.13772 26.642215 -5.13772 26.642215 -7.66259766 24.76171875 C-9.36559808 22.51840896 -9.38665126 21.23476832 -9.3984375 18.4375 C-9.40230469 17.55835938 -9.40617188 16.67921875 -9.41015625 15.7734375 C-9.39855469 14.85820312 -9.38695312 13.94296875 -9.375 13 C-9.39240234 11.62714844 -9.39240234 11.62714844 -9.41015625 10.2265625 C-9.40628906 9.34742188 -9.40242187 8.46828125 -9.3984375 7.5625 C-9.39336182 6.35787109 -9.39336182 6.35787109 -9.38818359 5.12890625 C-8.42281218 -0.16545773 -4.79282513 -0.59910314 0 0 Z " fill="#008080" transform="translate(138,196)"/>
<path d="M0 0 C1.32278481 5.41139241 1.32278481 5.41139241 -0.0625 7.9375 C-2.91093248 9.49954362 -4.93504903 8.74921024 -8 8 C-9.32278481 2.58860759 -9.32278481 2.58860759 -7.9375 0.0625 C-5.08906752 -1.49954362 -3.06495097 -0.74921024 0 0 Z " fill="#008080" transform="translate(266,136)"/>
</svg>
